<svg width="12" height="12" viewBox="0 0 12 12" fill="none" xmlns="http://www.w3.org/2000/svg">
<path d="M5.90906 1C4.93814 1 3.98903 1.28791 3.18174 1.82733C2.37444 2.36674 1.74524 3.13343 1.37368 4.03045C1.00213 4.92746 0.904911 5.91451 1.09433 6.86677C1.28375 7.81904 1.75129 8.69375 2.43783 9.38029C3.12438 10.0668 3.99909 10.5344 4.95135 10.7238C5.90362 10.9132 6.89067 10.816 7.78768 10.4444C8.6847 10.0729 9.45139 9.44368 9.9908 8.63639C10.5302 7.8291 10.8181 6.87998 10.8181 5.90906C10.818 4.60712 10.3008 3.35853 9.3802 2.43792C8.45959 1.51731 7.211 1.00008 5.90906 1Z" stroke="#52525B" stroke-width="1.5" stroke-miterlimit="10"/>
</svg>
