<svg width="32" height="32" viewBox="0 0 32 32" fill="none" xmlns="http://www.w3.org/2000/svg">
<rect width="32" height="32" rx="6" fill="#696A75"/>
<path d="M23.5 11.4219C22.9373 11.6664 22.342 11.8274 21.7328 11.9C22.373 11.5251 22.8545 10.9296 23.0869 10.225C22.4816 10.5789 21.8205 10.8273 21.1319 10.9594C20.8419 10.6555 20.4932 10.4137 20.1069 10.2488C19.7205 10.0839 19.3047 9.99923 18.8847 10C17.1841 10 15.8078 11.3563 15.8078 13.0281C15.8066 13.2607 15.8333 13.4925 15.8872 13.7188C14.6677 13.6616 13.4736 13.3505 12.3812 12.8054C11.2889 12.2603 10.3223 11.4932 9.54344 10.5531C9.27018 11.0138 9.12567 11.5394 9.125 12.075C9.125 13.125 9.67281 14.0531 10.5 14.5969C10.0099 14.5852 9.52987 14.4555 9.10063 14.2188V14.2563C9.10063 15.725 10.1631 16.9469 11.5694 17.225C11.3049 17.2955 11.0324 17.3312 10.7587 17.3313C10.5646 17.3316 10.3708 17.3128 10.1803 17.275C10.5712 18.4781 11.7091 19.3531 13.0569 19.3781C11.9617 20.2222 10.6171 20.6784 9.23438 20.675C8.98894 20.6746 8.74374 20.66 8.5 20.6313C9.90662 21.5294 11.5417 22.0045 13.2106 22C18.8781 22 21.9744 17.3844 21.9744 13.3813C21.9744 13.25 21.9709 13.1188 21.9647 12.9906C22.5657 12.5631 23.0856 12.0319 23.5 11.4219V11.4219Z" fill="white"/>
</svg>
